<svg xmlns="http://www.w3.org/2000/svg" viewBox="0 0 96 96">
  <rect width="96" height="96" rx="22" fill="#ffffff"/>
  <rect x="1" y="1" width="94" height="94" rx="21" fill="none" stroke="#d8dee4" stroke-width="2"/>
  <path d="M10 76 18 47 36 24 47 35 58 25 77 49 86 76H61L56 61H39L34 76H10Z" fill="#172f36"/>
  <path d="M30 76 34 48 42 40H54L63 51 66 76H55L52 58H44L41 76H30Z" fill="#ffffff"/>
  <path d="M37 82h28L56 68H46L37 82Z" fill="#263d44"/>
  <path d="M32 86h38" stroke="#9aa8b0" stroke-linecap="round" stroke-width="4"/>
  <path d="M38 78h26" stroke="#9aa8b0" stroke-linecap="round" stroke-width="4"/>
  <path d="M42 70h18" stroke="#9aa8b0" stroke-linecap="round" stroke-width="4"/>
  <path d="M45 60c-3-4-6-8-6-13a9 9 0 0 1 18 0c0 5-3 9-6 13l-3 4-3-4Z" fill="#8bbf9f"/>
  <circle cx="48" cy="47" r="4.5" fill="#172f36"/>
  <circle cx="48" cy="22" r="6" fill="#3f8b79"/>
  <path d="M28 16c11-12 29-12 40 0" fill="none" stroke="#3f8b79" stroke-linecap="round" stroke-width="7"/>
  <path d="M36 25c7-8 17-8 24 0" fill="none" stroke="#7db28e" stroke-linecap="round" stroke-width="7"/>
  <circle cx="73" cy="65" r="15" fill="#ffffff" stroke="#7db28e" stroke-width="5"/>
  <path d="M61 66h6l3-9 5 18 4-15 3 6h5" fill="none" stroke="#7db28e" stroke-linecap="round" stroke-linejoin="round" stroke-width="4"/>
</svg>
